<?xml version="1.0" encoding="UTF-8" standalone="no"?>
<!-- Created with Inkscape (http://www.inkscape.org/) -->

<svg
   version="1.1"
   id="svg23261"
   xml:space="preserve"
   width="800"
   height="800"
   viewBox="0 0 800 800"
   sodipodi:docname="couple-dancing-publicdomainvectors.org.svg"
   inkscape:version="1.1.2 (b8e25be833, 2022-02-05)"
   xmlns:inkscape="http://www.inkscape.org/namespaces/inkscape"
   xmlns:sodipodi="http://sodipodi.sourceforge.net/DTD/sodipodi-0.dtd"
   xmlns="http://www.w3.org/2000/svg"
   xmlns:svg="http://www.w3.org/2000/svg"><defs
     id="defs23265"><clipPath
       clipPathUnits="userSpaceOnUse"
       id="clipPath23275"><path
         d="M 0,600 H 600 V 0 H 0 Z"
         id="path23273" /></clipPath></defs><sodipodi:namedview
     id="namedview23263"
     pagecolor="#ffffff"
     bordercolor="#666666"
     borderopacity="1.0"
     inkscape:pageshadow="2"
     inkscape:pageopacity="0.0"
     inkscape:pagecheckerboard="0"
     showgrid="false"
     inkscape:zoom="1.03875"
     inkscape:cx="400"
     inkscape:cy="400"
     inkscape:window-width="1920"
     inkscape:window-height="1018"
     inkscape:window-x="-8"
     inkscape:window-y="-8"
     inkscape:window-maximized="1"
     inkscape:current-layer="g23267" /><g
     id="g23267"
     inkscape:groupmode="layer"
     inkscape:label="couple-dancing-publicdomainvectors.org"
     transform="matrix(1.3333333,0,0,-1.3333333,0,800)"><g
       id="g23269"><g
         id="g23271"
         clip-path="url(#clipPath23275)"><path
           d="m 476.957,308.752 c -0.555,1.342 -1.104,2.686 -1.702,4.008 -1.216,2.684 -2.898,5.22 -3.718,8.009 -1.294,4.428 -3.825,8.313 -5.131,12.693 -0.032,0.108 -0.067,0.216 -0.099,0.324 l -11.814,-17.915 z"
           style="fill:#e6f0b6;fill-opacity:1;fill-rule:nonzero;stroke:none"
           id="path23277" /><path
           d="m 432.646,189.774 c 4.39,3.066 8.096,6.827 11.893,10.535 4.577,4.467 8.235,9.677 12.17,14.674 3.85,4.899 6.544,10.411 8.956,16.066 1.02,2.376 1.557,4.853 1.704,7.358 l -35.7,-49.311 c 0.327,0.225 0.652,0.452 0.977,0.678"
           style="fill:#8fd5ed;fill-opacity:1;fill-rule:nonzero;stroke:none"
           id="path23279" /><path
           d="m 298.37,567.051 c -3.257,1.053 -7.443,0.934 -10.839,1.013 -2.491,0.065 -4.978,0.011 -7.459,-0.158 -1.053,-0.069 -2.106,-0.158 -3.159,-0.267 -3.618,-0.385 -7.216,-1.013 -10.755,-1.878 -0.196,-0.048 -0.39,-0.099 -0.585,-0.148 l 43.063,-3.414 c -3.193,2.017 -6.564,3.657 -10.266,4.852"
           style="fill:#e65100;fill-opacity:1;fill-rule:nonzero;stroke:none"
           id="path23281" /><path
           d="m 409.998,178.931 c 1.085,0.806 2.23,1.408 3.701,1.655 6.793,1.129 12.435,4.676 17.97,8.51 l 35.7,49.311 c 0.13,2.212 -0.044,4.446 -0.473,6.65 -0.169,0.875 -0.418,1.731 -0.717,2.578 l -61.592,-41.986 z"
           style="fill:#bbebe3;fill-opacity:1;fill-rule:nonzero;stroke:none"
           id="path23283" /><path
           d="m 451.346,392.523 c -0.095,0.268 -0.193,0.536 -0.289,0.803 l -0.299,-0.592 z"
           style="fill:#f3bb73;fill-opacity:1;fill-rule:nonzero;stroke:none"
           id="path23285" /><path
           d="m 478.292,265.477 c 1.161,1.649 2.191,3.373 3.008,5.239 1.542,3.519 2.199,7.271 2.683,11.057 0.341,2.793 1.029,5.294 0.773,8.175 -0.19,2.191 -1.642,3.219 -2.433,5.136 -0.553,1.33 -0.87,2.749 -1.235,4.139 -0.361,1.339 -0.896,2.664 -1.553,3.889 -0.983,1.828 -1.788,3.732 -2.578,5.64 l -22.464,7.119 z"
           style="fill:#d5f3d7;fill-opacity:1;fill-rule:nonzero;stroke:none"
           id="path23287" /><path
           d="m 442.735,450.258 c 0.156,3.299 0.36,6.595 0.37,9.892 0.01,3.894 -0.316,7.79 -0.583,11.675 -0.273,4.037 -2.473,7.238 -4.768,10.328 l 4.195,-34.441 z"
           style="fill:#ef4d1f;fill-opacity:1;fill-rule:nonzero;stroke:none"
           id="path23289" /><path
           d="m 442.637,447.913 c 0.029,0.782 0.062,1.564 0.098,2.345 l -0.786,-2.546 z"
           style="fill:#f4683e;fill-opacity:1;fill-rule:nonzero;stroke:none"
           id="path23291" /><path
           d="m 451.057,393.326 c -0.233,0.645 -0.467,1.289 -0.703,1.932 l 0.404,-2.524 z"
           style="fill:#f7a559;fill-opacity:1;fill-rule:nonzero;stroke:none"
           id="path23293" /><path
           d="m 442.561,443.904 c 0.003,0.674 0.008,1.347 0.021,2.02 0.012,0.663 0.032,1.326 0.055,1.989 l -0.688,-0.201 z"
           style="fill:#f7a559;fill-opacity:1;fill-rule:nonzero;stroke:none"
           id="path23295" /><path
           d="m 466.307,333.786 c -1.684,5.536 -4.256,10.578 -7.581,15.325 -1.271,1.809 -2.453,3.643 -4.074,5.16 -0.093,0.09 -0.242,0.188 -0.247,0.288 -0.056,1.502 -0.962,2.336 -1.943,3.105 l 2.031,-41.793 z"
           style="fill:#f2e69e;fill-opacity:1;fill-rule:nonzero;stroke:none"
           id="path23297" /><path
           d="m 452.233,362.371 c 2.475,4.236 3.711,8.787 3.033,14.006 -0.643,4.913 -1.681,9.688 -3.287,14.344 -0.208,0.602 -0.419,1.203 -0.633,1.802 l -0.588,0.211 z"
           style="fill:#f2e69e;fill-opacity:1;fill-rule:nonzero;stroke:none"
           id="path23299" /><path
           d="m 441.949,447.712 -4.195,34.441 c -0.035,0.047 -0.07,0.095 -0.106,0.141 -4.419,5.932 -9.747,10.979 -15.773,15.244 -1.922,1.364 -2.437,3.268 -2.782,5.339 -0.435,2.589 -1.652,4.561 -4.058,5.798 -1.38,0.707 -2.526,1.824 -3.752,2.763 -2.156,1.646 -4.539,2.837 -6.91,4.004 -2.947,1.454 -5.329,3.361 -7.232,6.04 -1.468,2.066 -3.188,3.965 -4.917,5.823 -1.395,1.504 -3.053,2.578 -4.81,3.491 l -36.738,-53.461 z"
           style="fill:#fb6507;fill-opacity:1;fill-rule:nonzero;stroke:none"
           id="path23301" /><path
           d="m 372.294,288.917 101.229,-28.394 c 0.901,0.385 1.72,1.034 2.493,1.977 0.797,0.975 1.56,1.961 2.276,2.977 l -23.799,50.394 z"
           style="fill:#e8f8c4;fill-opacity:1;fill-rule:nonzero;stroke:none"
           id="path23303" /><path
           d="m 404.587,205.649 61.592,41.986 c -0.769,2.173 -1.88,4.263 -2.931,6.34 -1.577,3.118 -3.524,6.004 -5.556,8.833 -0.143,0.197 -0.425,0.544 -0.385,0.592 0.252,0.277 0.548,0.02 0.796,-0.069 3.85,-1.345 7.77,-2.422 11.793,-3.119 1.372,-0.236 2.558,-0.147 3.627,0.311 l -101.229,28.394 z"
           style="fill:#ddf5db;fill-opacity:1;fill-rule:nonzero;stroke:none"
           id="path23305" /><path
           d="m 387.414,530.796 c -1.57,0.815 -3.222,1.501 -4.84,2.243 -6.406,2.926 -15.372,2.778 -19.881,-3.347 -2.185,-2.971 -3.213,-6.144 -3.548,-9.663 -0.218,-2.314 -0.704,-4.592 -0.693,-6.94 0.01,-3.144 0.178,-6.238 1.34,-9.193 0.46,-1.168 1.022,-2.274 2.58,-2.235 0.411,0.005 1.059,0.257 1.162,-0.416 0.108,-0.682 0.218,-1.393 -0.583,-1.907 -2.98,-1.908 -5.64,-4.212 -8.102,-6.752 -1.488,-1.543 -2.476,-3.441 -3.757,-5.112 -0.342,-0.444 -0.659,-0.901 -0.959,-1.365 l 0.543,-8.774 z"
           style="fill:#f55a00;fill-opacity:1;fill-rule:nonzero;stroke:none"
           id="path23307" /><path
           d="m 356.658,87.678 c 3,-0.158 5.492,-1.755 8.428,-2.086 2.332,-0.267 4.824,-1.008 6.899,-2.491 1.291,-0.919 2.977,-0.732 4.43,-1.345 1.285,-0.543 2.699,-0.825 3.876,-1.651 0.671,-0.464 1.354,-0.875 2.204,-0.85 0.82,0.02 1.137,-0.42 1.176,-1.166 h 2.552 c 0.938,0.953 1.112,2.224 1.166,3.42 0.287,6.366 0.618,12.753 -0.01,19.095 -0.692,6.995 -2.195,13.855 -4.132,20.636 -0.224,0.785 -0.466,1.563 -0.722,2.332 l -27.38,-35.709 c 0.504,-0.091 1.009,-0.159 1.513,-0.185"
           style="fill:#98bac4;fill-opacity:1;fill-rule:nonzero;stroke:none"
           id="path23309" /><path
           d="M 450.758,392.734 343.737,411.95 372.294,288.917 Z"
           style="fill:#ffe157;fill-opacity:1;fill-rule:nonzero;stroke:none"
           id="path23311" /><path
           d="m 372.294,288.917 82.199,26.954 -2.031,41.793 c -0.566,0.443 -1.156,0.866 -1.626,1.383 -0.414,0.464 -0.38,0.602 -0.039,1.087 0.516,0.736 0.995,1.481 1.436,2.237 l -1.475,30.363 z"
           style="fill:#f9f393;fill-opacity:1;fill-rule:nonzero;stroke:none"
           id="path23313" /><path
           d="m 343.737,411.95 107.021,-19.216 -0.404,2.524 c -1.211,3.288 -2.46,6.559 -3.606,9.867 -1.71,4.942 -2.679,10.074 -3.365,15.244 -0.654,4.888 -0.534,9.817 -0.693,14.73 -0.096,2.934 -0.149,5.873 -0.129,8.805 l -0.612,3.808 z"
           style="fill:#fdb53f;fill-opacity:1;fill-rule:nonzero;stroke:none"
           id="path23315" /><path
           d="m 350.676,477.335 -6.939,-65.385 98.212,35.762 z"
           style="fill:#ff9b13;fill-opacity:1;fill-rule:nonzero;stroke:none"
           id="path23317" /><path
           d="m 404.587,205.649 -32.293,83.268 -8.274,-77.396 z"
           style="fill:#dff3bd;fill-opacity:1;fill-rule:nonzero;stroke:none"
           id="path23319" /><path
           d="m 349.175,89.122 c 0.072,-0.011 0.144,-0.022 0.218,-0.03 1.961,-0.199 3.86,-0.887 5.752,-1.229 l 27.38,35.709 c -1.657,4.993 -3.953,9.696 -6.377,14.312 -1.948,3.721 -3.668,7.508 -5.23,11.388 -0.988,2.448 -1.016,4.942 -0.497,7.542 l -20.545,-3.207 z"
           style="fill:#adcfb9;fill-opacity:1;fill-rule:nonzero;stroke:none"
           id="path23321" /><path
           d="m 364.02,211.521 32.283,-31.581 c 0.356,0.115 0.711,0.232 1.065,0.349 2.017,0.662 2.383,0.405 2.764,-1.726 0.167,-0.933 0.063,-1.921 0.84,-2.727 1.7,-1.765 3.301,-1.789 4.834,0.084 0.712,0.865 1.207,1.947 2.61,1.913 0.307,-0.01 0.653,0.36 0.939,0.598 0.213,0.175 0.426,0.34 0.643,0.5 l -5.411,26.718 z"
           style="fill:#c0eac6;fill-opacity:1;fill-rule:nonzero;stroke:none"
           id="path23323" /><path
           d="m 349.876,153.607 20.545,3.207 c 0.019,0.105 0.04,0.208 0.062,0.313 0.465,2.15 0.762,4.33 1.474,6.42 0.168,0.479 0.306,0.939 0.81,1.241 1.82,1.088 2.284,3.045 3.005,4.834 0.643,1.592 0.742,3.352 1.444,4.944 0.262,0.582 0.523,0.825 1.196,0.849 2.654,0.109 5.191,0.731 7.563,1.973 2.056,1.083 4.26,1.587 6.584,1.73 1.286,0.08 2.52,0.428 3.744,0.822 l -32.283,31.581 z"
           style="fill:#bee2ba;fill-opacity:1;fill-rule:nonzero;stroke:none"
           id="path23325" /><path
           d="M 372.294,288.917 343.737,411.95 282.087,314.271 Z"
           style="fill:#ffdd4d;fill-opacity:1;fill-rule:nonzero;stroke:none"
           id="path23327" /><path
           d="m 256.467,215.258 107.553,-3.737 -81.933,102.75 z"
           style="fill:#f0e096;fill-opacity:1;fill-rule:nonzero;stroke:none"
           id="path23329" /><path
           d="m 364.02,211.521 8.274,77.396 -90.207,25.354 z"
           style="fill:#f6ee98;fill-opacity:1;fill-rule:nonzero;stroke:none"
           id="path23331" /><path
           d="m 350.133,486.109 c -1.592,-2.463 -2.628,-5.173 -3.569,-7.928 -0.158,-0.463 -0.305,-0.93 -0.445,-1.398 l 4.557,0.552 z"
           style="fill:#fb6800;fill-opacity:1;fill-rule:nonzero;stroke:none"
           id="path23333" /><path
           d="m 326.451,474.396 c 0.264,0.783 0.529,1.565 0.792,2.348 1.058,3.123 0.751,6.257 0.261,9.416 -0.914,5.937 -0.256,11.665 2.299,17.142 0.267,0.594 0.672,1.068 1.107,1.542 0.83,0.909 0.914,2.022 0.049,2.858 -0.914,0.879 -0.918,1.744 -0.735,2.866 1.137,6.999 0.835,13.89 -1.454,20.671 -0.669,1.979 -1.198,3.991 -1.442,6.046 L 269.277,467.46 Z"
           style="fill:#fb6800;fill-opacity:1;fill-rule:nonzero;stroke:none"
           id="path23335" /><path
           d="m 349.876,153.607 14.144,57.914 -107.553,3.737 z"
           style="fill:#d3dfa7;fill-opacity:1;fill-rule:nonzero;stroke:none"
           id="path23337" /><path
           d="m 343.737,411.95 -111.29,-28.29 49.64,-69.389 z"
           style="fill:#feba1a;fill-opacity:1;fill-rule:nonzero;stroke:none"
           id="path23339" /><path
           d="m 327.328,537.285 c -0.197,1.662 -0.209,3.352 0.043,5.076 0.533,3.618 -1.301,6.347 -4.033,8.235 -3.313,2.279 -6.09,5.131 -9.184,7.632 -1.797,1.446 -3.627,2.775 -5.518,3.971 l -43.063,3.414 c -1.617,-0.409 -3.225,-0.863 -4.813,-1.374 -0.929,-0.304 -1.631,-0.742 -2.327,-1.249 l 10.844,-95.53 z"
           style="fill:#f35c00;fill-opacity:1;fill-rule:nonzero;stroke:none"
           id="path23341" /><path
           d="m 274.357,103.555 c 1.028,-0.525 2.058,-1.041 3.08,-1.577 1.942,-1.013 3.949,-1.962 5.714,-3.233 2.393,-1.724 4.943,-2.848 7.84,-3.395 2.625,-0.499 5.19,-1.295 7.79,-1.938 0.533,-0.129 1.093,-0.307 1.621,-0.258 3.02,0.283 5.813,-0.791 8.69,-1.393 0.751,-0.154 1.492,-0.267 2.264,-0.267 9.53,0.01 19.055,0.039 28.58,-0.019 2.224,-0.021 4.36,-0.683 6.441,-1.503 0.904,-0.359 1.848,-0.713 2.798,-0.85 l 0.701,64.485 z"
           style="fill:#b7b9a7;fill-opacity:1;fill-rule:nonzero;stroke:none"
           id="path23343" /><path
           d="m 236.451,157.878 0.375,-1.132 c 3.309,-0.898 6.542,-2.039 9.777,-3.169 3.44,-1.196 6.272,-3.489 8.497,-6.425 1.908,-2.521 1.607,-5.314 -0.737,-7.405 -0.158,-0.138 -0.326,-0.287 -0.445,-0.459 -1.873,-2.951 -4.517,-5.284 -6.504,-8.141 -0.49,-0.706 -0.957,-1.421 -1.371,-2.166 l 4.054,-12.211 c 3.453,-2.572 7.554,-3.936 11.829,-4.981 0.959,-0.237 1.888,-0.424 2.412,-1.408 0.405,-0.766 1.306,-0.885 1.963,-1.319 1.517,-1.014 2.62,-2.501 4.206,-3.431 1.261,-0.74 2.553,-1.414 3.85,-2.076 l 75.519,50.052 z"
           style="fill:#c2ba94;fill-opacity:1;fill-rule:nonzero;stroke:none"
           id="path23345" /><path
           d="m 236.451,157.878 113.425,-4.271 -93.409,61.651 z"
           style="fill:#d3c993;fill-opacity:1;fill-rule:nonzero;stroke:none"
           id="path23347" /><path
           d="m 312.712,435.08 c 0.328,0.6 0.636,1.218 0.927,1.853 4.063,8.862 6.861,18.16 9.594,27.488 0.98,3.35 2.099,6.665 3.218,9.975 l -57.174,-6.936 z"
           style="fill:#ff8500;fill-opacity:1;fill-rule:nonzero;stroke:none"
           id="path23349" /><path
           d="m 350.676,477.335 -4.557,-0.552 c -0.993,-3.351 -1.492,-6.804 -1.492,-10.325 -0.005,-1.094 0.152,-2.191 0.286,-3.283 0.134,-1.048 -0.42,-1.3 -1.285,-1.157 -0.934,0.158 -1.774,0.574 -2.534,1.137 -0.619,0.465 -1.306,0.741 -1.979,0.183 -0.731,-0.618 -0.449,-1.399 -0.108,-2.101 0.495,-1.013 1.464,-1.641 2.175,-2.481 0.588,-0.693 0.652,-1.161 -0.337,-1.591 -2.313,-1.01 -4.241,-2.655 -6.385,-3.945 -1.701,-1.028 -3.674,-1.503 -5.231,-2.843 -1.651,-1.423 -2.273,-3.217 -1.413,-5.234 0.771,-1.789 1.246,-3.707 2.274,-5.383 0.771,-1.255 1.615,-2.457 3.381,-2.209 0.583,0.089 0.746,-0.188 0.721,-0.718 -0.029,-0.469 0.059,-1.041 -0.657,-0.962 -2.189,0.246 -2.63,-1.87 -3.871,-2.888 -0.371,-0.296 -0.213,-1.048 0,-1.577 0.149,-0.35 0.303,-0.717 0.515,-1.023 1.388,-2.001 1.632,-3.81 -0.327,-5.738 -0.587,-0.582 -0.696,-1.234 -0.586,-1.907 l 14.471,-10.788 z"
           style="fill:#ff8500;fill-opacity:1;fill-rule:nonzero;stroke:none"
           id="path23351" /><path
           d="m 232.447,383.66 111.29,28.29 -14.471,10.788 c 0.117,-0.706 0.473,-1.434 0.775,-2.121 0.183,-0.426 1.147,-0.51 0.563,-1.301 -0.614,-0.826 -1.315,-1.409 -2.403,-1.355 -1.68,0.085 -3.31,0.638 -4.744,1.32 -2.592,1.237 -5.443,1.928 -7.83,3.579 -2.205,1.522 -4.785,2.343 -6.949,3.965 -0.832,0.617 -2.102,0.568 -2.923,1.388 -0.133,0.129 -0.454,0.094 -0.419,0.371 0.01,0.079 0.266,0.138 0.414,0.188 3.358,1.098 5.408,3.47 6.962,6.308 l -43.435,32.38 z"
           style="fill:#fe9400;fill-opacity:1;fill-rule:nonzero;stroke:none"
           id="path23353" /><path
           d="m 258.433,562.99 c -0.459,-0.334 -0.916,-0.698 -1.435,-1.074 -2.812,-2.042 -5.344,-4.429 -7.949,-6.704 -2.728,-2.381 -5.254,-5.11 -7.379,-8.041 -2.753,-3.796 -4.587,-8.052 -4.701,-12.941 -0.114,-5.047 -0.459,-10.098 -0.296,-15.146 0.083,-2.53 -0.149,-5.096 0.469,-7.597 0.129,-0.504 -0.119,-0.929 -0.276,-1.354 -1.236,-3.262 -1.533,-6.688 -1.671,-10.113 -0.108,-2.738 0.365,-5.357 1.097,-7.918 l 32.985,-24.642 z"
           style="fill:#f04f00;fill-opacity:1;fill-rule:nonzero;stroke:none"
           id="path23355" /><path
           d="m 236.292,492.102 c 0.611,-2.138 1.403,-4.236 2.195,-6.328 0.751,-1.977 1.76,-3.845 2.792,-5.704 1.088,-1.958 1.286,-4.271 1.053,-6.416 -0.219,-2.058 -0.109,-4.09 -0.207,-6.129 l 27.152,-0.065 z"
           style="fill:#f64e00;fill-opacity:1;fill-rule:nonzero;stroke:none"
           id="path23357" /><path
           d="m 184.675,314.804 71.792,-99.546 25.62,99.013 z"
           style="fill:#fbb94f;fill-opacity:1;fill-rule:nonzero;stroke:none"
           id="path23359" /><path
           d="m 282.087,314.271 -49.64,69.389 -47.772,-68.856 z"
           style="fill:#ffab15;fill-opacity:1;fill-rule:nonzero;stroke:none"
           id="path23361" /><path
           d="m 269.277,467.46 -27.152,0.065 c -0.003,-0.075 -0.006,-0.152 -0.01,-0.228 -0.025,-0.42 0.05,-0.864 -0.05,-1.265 -0.346,-1.473 -0.671,-3.015 -1.157,-4.37 -0.879,-2.461 -2.777,-4.449 -4.903,-6.03 -3.401,-2.521 -6.929,-4.879 -10.38,-7.345 -2.837,-2.027 -5.793,-3.707 -9.223,-4.607 -2.304,-0.598 -4.637,-1.187 -6.842,-2.16 -0.781,-0.346 -1.695,-0.504 -2.55,-0.678 -6.085,-1.22 -12.11,-2.624 -18.388,-2.837 -1.501,-0.05 -3.002,-0.105 -4.504,-0.168 l 48.329,-54.177 z"
           style="fill:#fd7700;fill-opacity:1;fill-rule:nonzero;stroke:none"
           id="path23363" /><path
           d="m 184.675,314.804 -20.248,-50.548 c 2.171,-3.505 4.342,-7.011 7.201,-10.034 0.603,-0.638 1.058,-1.42 2.027,-1.648 0.741,-0.177 0.667,-0.898 0.687,-1.452 0.045,-1.137 0.222,-2.2 1.073,-3.04 0.415,-0.41 0.543,-1.062 0.286,-1.418 -1.097,-1.493 -0.381,-3.085 -0.242,-4.567 0.45,-4.865 0.934,-9.748 0.223,-14.588 -0.396,-2.654 -0.88,-5.323 -1.419,-7.973 -0.004,-0.022 -0.01,-0.045 -0.014,-0.067 l 82.218,-4.211 z"
           style="fill:#f59959;fill-opacity:1;fill-rule:nonzero;stroke:none"
           id="path23365" /><path
           d="m 244.765,125.699 c -0.475,-2.249 0.464,-3.905 1.798,-5.546 1.074,-1.323 2.26,-2.434 3.534,-3.383 l -4.054,12.211 c -0.566,-1.019 -1.027,-2.093 -1.278,-3.282"
           style="fill:#bc8670;fill-opacity:1;fill-rule:nonzero;stroke:none"
           id="path23367" /><path
           d="m 235.852,157.003 c 0.326,-0.084 0.65,-0.169 0.974,-0.257 l -0.375,1.132 z"
           style="fill:#bc8670;fill-opacity:1;fill-rule:nonzero;stroke:none"
           id="path23369" /><path
           d="m 256.467,215.258 -82.218,4.211 c -1.038,-5.073 -2.523,-10.02 -3.962,-14.981 l 66.164,-46.61 z"
           style="fill:#e0a468;fill-opacity:1;fill-rule:nonzero;stroke:none"
           id="path23371" /><path
           d="m 232.447,383.66 -77.129,-8.007 29.357,-60.849 z"
           style="fill:#ff8800;fill-opacity:1;fill-rule:nonzero;stroke:none"
           id="path23373" /><path
           d="m 232.447,383.66 -48.329,54.177 c -4.126,-0.173 -8.252,-0.407 -12.361,-0.781 -3.371,-0.306 -6.723,-0.781 -10.074,-1.241 -1.658,-0.225 -3.319,-0.426 -4.983,-0.563 l -1.382,-59.599 z"
           style="fill:#fd7400;fill-opacity:1;fill-rule:nonzero;stroke:none"
           id="path23375" /><path
           d="m 234.418,157.35 c 0.48,-0.11 0.957,-0.226 1.434,-0.347 l 0.599,0.875 z"
           style="fill:#c27660;fill-opacity:1;fill-rule:nonzero;stroke:none"
           id="path23377" /><path
           d="m 170.287,204.488 c -0.998,-3.439 -1.974,-6.887 -2.761,-10.388 -1.513,-6.727 -3.836,-13.277 -5.749,-19.92 -1.562,-5.417 -2.689,-10.934 -3.386,-16.534 -0.183,-1.454 -1.043,-2.778 -0.81,-4.335 0.148,-1.019 0.177,-2.13 1.245,-2.61 1.048,-0.474 2.047,-0.183 2.946,0.583 1.285,1.097 2.624,2.146 3.959,3.193 1.241,0.968 1.864,2.313 2.2,3.777 0.425,1.883 1.621,2.733 3.44,3.045 3.144,0.543 6.317,0.751 9.481,0.791 5.778,0.063 11.562,-0.011 17.335,-0.189 4.696,-0.138 9.406,-0.306 14.063,-0.883 2.797,-0.352 5.625,-0.58 8.412,-1.143 3.08,-0.623 6.179,-1.319 9.274,-1.715 1.517,-0.196 3.009,-0.473 4.482,-0.81 l 2.033,0.528 z"
           style="fill:#d5815b;fill-opacity:1;fill-rule:nonzero;stroke:none"
           id="path23379" /><path
           d="m 155.318,375.653 1.382,59.599 c -1.799,-0.148 -3.598,-0.222 -5.395,-0.163 -4.063,0.139 -7.997,-0.84 -12.021,-0.968 -1.461,-0.048 -2.93,-0.093 -4.392,-0.235 l -32.95,-49.425 z"
           style="fill:#fa6200;fill-opacity:1;fill-rule:nonzero;stroke:none"
           id="path23381" /><path
           d="m 155.318,375.653 -61.916,-49.106 29.989,-3.858 c 2.581,1.488 4.843,3.473 7.195,5.301 1.103,0.855 1.335,0.677 1.98,-0.553 1.086,-2.077 2.112,-4.177 3.043,-6.32 l 49.066,-6.313 z"
           style="fill:#ff7200;fill-opacity:1;fill-rule:nonzero;stroke:none"
           id="path23383" /><path
           d="m 103.434,306.781 c 0.467,0.464 0.939,0.922 1.425,1.367 5.758,5.275 11.49,10.564 18.363,14.44 0.057,0.032 0.112,0.068 0.169,0.101 l -29.989,3.858 z"
           style="fill:#fc741c;fill-opacity:1;fill-rule:nonzero;stroke:none"
           id="path23385" /><path
           d="m 135.609,321.117 c 0.453,-1.042 0.885,-2.093 1.287,-3.156 2.269,-5.991 4.41,-12.036 6.794,-17.982 2.393,-5.961 5.505,-11.568 8.917,-17.009 3.208,-5.107 6.377,-10.237 9.664,-15.288 0.735,-1.131 1.446,-2.278 2.156,-3.426 l 20.248,50.548 z"
           style="fill:#fc741c;fill-opacity:1;fill-rule:nonzero;stroke:none"
           id="path23387" /><path
           d="m 93.336,297.118 c 1.117,0.252 1.981,1.148 2.786,1.951 2.512,2.493 4.796,5.216 7.312,7.712 l -10.032,19.766 z"
           style="fill:#f26238;fill-opacity:1;fill-rule:nonzero;stroke:none"
           id="path23389" /><path
           d="m 155.318,375.653 -53.376,8.808 -8.54,-57.914 z"
           style="fill:#fa6800;fill-opacity:1;fill-rule:nonzero;stroke:none"
           id="path23391" /><path
           d="m 134.892,433.886 c -0.687,-0.067 -1.372,-0.154 -2.054,-0.275 -1.021,-0.183 -2.002,-0.44 -2.76,-1.176 -2.143,-2.081 -4.602,-3.876 -5.576,-6.95 -0.383,-1.211 -1.246,-2.254 -1.404,-3.594 -0.056,-0.474 -0.383,-0.939 -0.65,-1.373 -0.417,-0.673 -1.396,-1.034 -1.809,-0.811 -0.62,0.326 -0.658,1.21 -0.333,2.036 1.052,2.699 0.734,5.477 0.262,8.235 -0.114,0.663 -0.339,1.305 -0.48,1.957 -0.662,3.1 -2.36,5.669 -4.226,8.127 -1.202,1.582 -3.119,2.308 -4.689,3.45 -1.05,0.768 -2.113,1.513 -3.194,2.231 l -6.037,-61.282 z"
           style="fill:#f64d00;fill-opacity:1;fill-rule:nonzero;stroke:none"
           id="path23393" /><path
           d="m 51.201,321.087 c -0.026,-11.369 0.194,-20.931 0.714,-21.741 1.295,-2.017 2.123,-1.805 3.114,-2.778 0.568,-0.559 1.161,-0.747 1.932,-0.733 6.058,0.154 12.145,0.1 17.958,2.186 1.992,0.711 3.92,1.612 5.85,2.491 0.922,0.416 1.732,0.306 2.486,-0.262 2.603,-1.972 5.747,-2.437 8.794,-3.124 0.467,-0.105 0.893,-0.096 1.287,-0.008 l 0.066,29.429 z"
           style="fill:#f2500e;fill-opacity:1;fill-rule:nonzero;stroke:none"
           id="path23395" /><path
           d="m 79.213,378.694 22.729,5.767 -27.309,16.533 c 0.486,-1.998 1.008,-3.988 1.319,-6.017 0.841,-5.479 2.087,-10.874 3.261,-16.283"
           style="fill:#e94c00;fill-opacity:1;fill-rule:nonzero;stroke:none"
           id="path23397" /><path
           d="m 76.667,379.214 c 0.395,0.998 0.691,2.001 0.627,3.089 -0.04,0.668 -0.363,1.157 -0.939,1.408 -0.561,0.248 -1.053,0.02 -1.485,-0.419 -0.603,-0.613 -1.32,-1.162 -2.158,-1.301 -2.815,-0.474 -4.327,-2.58 -5.771,-4.651 -0.507,-0.728 -1.028,-1.445 -1.558,-2.155 l 10.733,2.723 c 0.19,0.431 0.376,0.865 0.551,1.306"
           style="fill:#e94c00;fill-opacity:1;fill-rule:nonzero;stroke:none"
           id="path23399" /><path
           d="m 107.979,445.743 c -3.583,2.382 -7.351,4.444 -11.452,5.895 -1.66,0.584 -2.16,0.465 -2.903,-1.186 -1.101,-2.432 -2.035,-4.953 -3.918,-6.946 -2.822,-2.98 -5.313,-6.262 -8.316,-9.094 -1.333,-1.256 -2.625,-2.812 -2.168,-4.909 0.593,-2.708 -1.124,-4.503 -2.664,-6.094 -1.646,-1.701 -1.656,-3.722 -2.005,-5.7 -0.232,-1.319 -0.042,-2.713 -0.047,-4.072 -0.002,-1.009 -0.098,-1.879 -0.709,-2.848 -0.763,-1.215 -0.368,-2.817 -0.22,-4.241 0.195,-1.882 0.611,-3.721 1.056,-5.554 l 27.309,-16.533 z"
           style="fill:#ed4100;fill-opacity:1;fill-rule:nonzero;stroke:none"
           id="path23401" /><path
           d="m 101.942,384.461 -22.729,-5.767 c 0.477,-2.203 0.944,-4.409 1.366,-6.623 0.188,-0.984 0.544,-1.834 1.189,-2.624 1.179,-1.449 0.546,-3.282 0.897,-4.918 0.106,-0.49 0.076,-1.014 0.15,-1.513 0.181,-1.191 -0.029,-2.209 -0.822,-3.199 -1.805,-2.254 -3.493,-4.592 -5.25,-6.879 -0.24,-0.312 -0.487,-0.841 -0.969,-0.678 -0.383,0.134 -0.25,0.662 -0.346,1.017 -0.763,2.824 -1.5,5.641 -1.856,8.553 -0.313,2.555 -0.242,5.076 -0.135,7.656 0.129,3.176 1.498,5.743 2.679,8.422 l -10.733,-2.723 c -1.854,-2.487 -3.832,-4.872 -5.864,-7.206 -2.115,-2.432 -5.266,-4.089 -6.717,-6.97 -0.346,-0.686 -0.643,-3.791 -0.885,-8.271 l 41.485,-26.191 z"
           style="fill:#f55e00;fill-opacity:1;fill-rule:nonzero;stroke:none"
           id="path23403" /><path
           d="m 51.917,352.738 c -0.437,-8.105 -0.691,-20.715 -0.716,-31.651 l 42.201,5.46 z"
           style="fill:#f15700;fill-opacity:1;fill-rule:nonzero;stroke:none"
           id="path23405" /></g></g></g></svg>
